<?xml version="1.0" encoding="utf-8"?>
<!-- Generator: Adobe Illustrator 22.0.0, SVG Export Plug-In . SVG Version: 6.00 Build 0)  -->
<svg version="1.1" id="Capa_1" xmlns="http://www.w3.org/2000/svg" xmlns:xlink="http://www.w3.org/1999/xlink" x="0px" y="0px"
	 viewBox="0 0 192.2 158.3" style="enable-background:new 0 0 192.2 158.3;" xml:space="preserve">
<style type="text/css">
	.st0{fill:url(#SVGID_1_);}
	.st1{fill:url(#SVGID_2_);}
	.st2{fill:url(#SVGID_3_);}
	.st3{fill:url(#SVGID_4_);}
</style>
<title>SolvMate</title>
<g>
	
		<linearGradient id="SVGID_1_" gradientUnits="userSpaceOnUse" x1="-97.8647" y1="15.0876" x2="181.1253" y2="249.0676" gradientTransform="matrix(1 0 0 -1 0 243.8898)">
		<stop  offset="0" style="stop-color:#6552E0"/>
		<stop  offset="0.49" style="stop-color:#3588D7"/>
		<stop  offset="1" style="stop-color:#05BECD"/>
	</linearGradient>
	<path class="st0" d="M96.1,15c31.8,27.7,30,77.5,0,102.3C66.1,92.5,64.2,42.7,96.1,15 M96.1,0c-3.6,0-7.1,1.3-9.8,3.7
		c-18.4,16-28.7,39.4-28.3,63.8c0.3,24.2,10.7,46.6,28.6,61.4c5.5,4.6,13.6,4.6,19.1,0c17.9-14.8,28.3-37.2,28.6-61.4
		c0.4-24.4-10-47.7-28.3-63.8C103.2,1.3,99.7,0,96.1,0z"/>
	
		<linearGradient id="SVGID_2_" gradientUnits="userSpaceOnUse" x1="-55.9405" y1="-34.9055" x2="223.0495" y2="199.0845" gradientTransform="matrix(1 0 0 -1 0 243.8898)">
		<stop  offset="0" style="stop-color:#6552E0"/>
		<stop  offset="0.49" style="stop-color:#3588D7"/>
		<stop  offset="1" style="stop-color:#05BECD"/>
	</linearGradient>
	<path class="st1" d="M96,144.2c3.9,0.1,7,3.2,7.1,7.1c0,3.9-3.1,7-7,7c-3.9,0-7-3.1-7-7C89.1,147.4,92.2,144.3,96,144.2z"/>
	
		<linearGradient id="SVGID_3_" gradientUnits="userSpaceOnUse" x1="-113.944" y1="34.2548" x2="165.0461" y2="268.2448" gradientTransform="matrix(1 0 0 -1 0 243.8898)">
		<stop  offset="0" style="stop-color:#6552E0"/>
		<stop  offset="0.49" style="stop-color:#3588D7"/>
		<stop  offset="1" style="stop-color:#05BECD"/>
	</linearGradient>
	<path class="st2" d="M64.7,133.3c-0.6,0-1.2-0.1-1.8-0.2c-11.8-3.5-22.7-9.4-32-17.5C16.5,103.3-0.5,80.6,0,41.7
		c0-3.4,2.3-6.3,5.6-7.1c1.3-0.3,13.7-3.3,39.4,2.6c4,0.9,6.6,5,5.6,9s-5,6.6-9,5.6l0,0c-12.6-2.9-21.3-3.4-26.5-3.3
		c2.7,57.1,50.9,69.8,51.4,69.9c4,1,6.5,5.1,5.5,9.1C71.2,130.9,68.1,133.2,64.7,133.3L64.7,133.3z"/>
	
		<linearGradient id="SVGID_4_" gradientUnits="userSpaceOnUse" x1="-69.0653" y1="-19.2518" x2="209.9247" y2="214.7283" gradientTransform="matrix(1 0 0 -1 0 243.8898)">
		<stop  offset="0" style="stop-color:#6552E0"/>
		<stop  offset="0.49" style="stop-color:#3588D7"/>
		<stop  offset="1" style="stop-color:#05BECD"/>
	</linearGradient>
	<path class="st3" d="M127.5,133.3c-4.1,0-7.5-3.3-7.5-7.5c0-3.5,2.3-6.5,5.7-7.3c2.1-0.6,48.8-13.2,51.4-69.9
		c-5.2-0.1-13.9,0.3-26.5,3.3c-4,0.9-8.1-1.6-9-5.6s1.6-8.1,5.6-9c25.7-5.9,38.1-3,39.4-2.6c3.2,0.9,5.5,3.8,5.6,7.1
		c0.6,38.8-16.5,61.6-30.9,73.8c-9.3,8-20.2,14-32,17.5C128.7,133.2,128.1,133.3,127.5,133.3z"/>
</g>
</svg>
