<svg id="Capa_1" data-name="Capa 1" xmlns="http://www.w3.org/2000/svg" xmlns:xlink="http://www.w3.org/1999/xlink" viewBox="0 0 382.65 242.97"><defs><style>.cls-1{fill:url(#Degradado_sin_nombre_2);}.cls-2{fill:url(#Degradado_sin_nombre_2-2);}.cls-3{fill:url(#Degradado_sin_nombre_2-3);}.cls-4{fill:url(#Degradado_sin_nombre_2-4);}.cls-5{fill:url(#Degradado_sin_nombre_2-5);}.cls-6{fill:url(#Degradado_sin_nombre_2-6);}.cls-7{fill:url(#Degradado_sin_nombre_2-7);}.cls-8{fill:url(#Degradado_sin_nombre_2-8);}.cls-9{fill:url(#Degradado_sin_nombre_2-9);}.cls-10{fill:url(#Degradado_sin_nombre_2-10);}.cls-11{fill:url(#Degradado_sin_nombre_2-11);}.cls-12{fill:url(#Degradado_sin_nombre_2-12);}</style><linearGradient id="Degradado_sin_nombre_2" x1="4.2" y1="236.92" x2="283.19" y2="2.94" gradientUnits="userSpaceOnUse"><stop offset="0" stop-color="#6552e0"/><stop offset="0.49" stop-color="#3588d7"/><stop offset="1" stop-color="#05becd"/></linearGradient><linearGradient id="Degradado_sin_nombre_2-2" x1="23.87" y1="260.38" x2="302.86" y2="26.39" xlink:href="#Degradado_sin_nombre_2"/><linearGradient id="Degradado_sin_nombre_2-3" x1="43.24" y1="283.46" x2="322.22" y2="49.48" xlink:href="#Degradado_sin_nombre_2"/><linearGradient id="Degradado_sin_nombre_2-4" x1="55.15" y1="297.67" x2="334.13" y2="63.68" xlink:href="#Degradado_sin_nombre_2"/><linearGradient id="Degradado_sin_nombre_2-5" x1="82.64" y1="330.45" x2="361.63" y2="96.46" xlink:href="#Degradado_sin_nombre_2"/><linearGradient id="Degradado_sin_nombre_2-6" x1="105.82" y1="358.08" x2="384.81" y2="124.09" xlink:href="#Degradado_sin_nombre_2"/><linearGradient id="Degradado_sin_nombre_2-7" x1="120.53" y1="375.62" x2="399.51" y2="141.63" xlink:href="#Degradado_sin_nombre_2"/><linearGradient id="Degradado_sin_nombre_2-8" x1="144.42" y1="404.1" x2="423.4" y2="170.11" xlink:href="#Degradado_sin_nombre_2"/><linearGradient id="Degradado_sin_nombre_2-9" x1="-2.61" y1="228.8" x2="276.38" y2="-5.18" xlink:href="#Degradado_sin_nombre_2"/><linearGradient id="Degradado_sin_nombre_2-10" x1="39.32" y1="278.8" x2="318.31" y2="44.81" xlink:href="#Degradado_sin_nombre_2"/><linearGradient id="Degradado_sin_nombre_2-11" x1="-18.7" y1="209.62" x2="260.29" y2="-24.37" xlink:href="#Degradado_sin_nombre_2"/><linearGradient id="Degradado_sin_nombre_2-12" x1="26.19" y1="263.14" x2="305.18" y2="29.16" xlink:href="#Degradado_sin_nombre_2"/></defs><title>SolvMate</title><path class="cls-1" d="M37.35,218.76a12.5,12.5,0,0,1,4,2.69,12.92,12.92,0,0,1,2.7,4,12.67,12.67,0,0,1,0,9.82A12.64,12.64,0,0,1,37.35,242a12.28,12.28,0,0,1-4.89,1H6.36a3.74,3.74,0,0,1-2.7-1.11,3.66,3.66,0,0,1-1.14-2.73,3.59,3.59,0,0,1,1.14-2.67,3.74,3.74,0,0,1,2.7-1.11h26.1a5,5,0,1,0,0-10H12.6a12.22,12.22,0,0,1-4.92-1,12.46,12.46,0,0,1-4-2.7,12.76,12.76,0,0,1-2.7-4,12.6,12.6,0,0,1,0-9.79,13.06,13.06,0,0,1,2.7-4,12.54,12.54,0,0,1,4-2.73,12.22,12.22,0,0,1,4.92-1H38.7A3.89,3.89,0,0,1,42.54,204a3.59,3.59,0,0,1-1.14,2.67,3.74,3.74,0,0,1-2.7,1.11H12.6a4.76,4.76,0,0,0-3.54,1.47,4.91,4.91,0,0,0-1.44,3.57,4.84,4.84,0,0,0,1.44,3.51,4.77,4.77,0,0,0,3.54,1.48H32.46A12.28,12.28,0,0,1,37.35,218.76Z"/><path class="cls-2" d="M88.87,206.36a20.57,20.57,0,0,1,4.62,7,19.58,19.58,0,0,1,1.14,4,24.64,24.64,0,0,1,.36,4.23,22.34,22.34,0,0,1-1.5,8.29,25.2,25.2,0,0,1-1.95,3.72,16.1,16.1,0,0,1-2.67,3.18,21.22,21.22,0,0,1-7.53,4.65A27.87,27.87,0,0,1,71.71,243H68.65A27.89,27.89,0,0,1,59,241.38a21.22,21.22,0,0,1-7.53-4.65,18.57,18.57,0,0,1-4.62-6.9,22.34,22.34,0,0,1-1.5-8.29,24.64,24.64,0,0,1,.36-4.23,19.58,19.58,0,0,1,1.14-4,19.82,19.82,0,0,1,4.62-7A21.22,21.22,0,0,1,59,201.71a27.89,27.89,0,0,1,9.64-1.59h3.06a27.87,27.87,0,0,1,9.63,1.59A21.22,21.22,0,0,1,88.87,206.36Zm-17.16,29a20.71,20.71,0,0,0,6.51-1,13.87,13.87,0,0,0,5-2.77,11.76,11.76,0,0,0,3.12-4.35,15.74,15.74,0,0,0,0-11.46,11.92,11.92,0,0,0-3.12-4.35,14,14,0,0,0-5-2.76,20.71,20.71,0,0,0-6.51-1H68.65a20.77,20.77,0,0,0-6.52,1,14,14,0,0,0-5,2.76,11.92,11.92,0,0,0-3.12,4.35,15.74,15.74,0,0,0,0,11.46,11.76,11.76,0,0,0,3.12,4.35,13.87,13.87,0,0,0,5,2.77,20.77,20.77,0,0,0,6.52,1Z"/><path class="cls-3" d="M135.91,236.46a3.59,3.59,0,0,1,1.14,2.67,3.66,3.66,0,0,1-1.14,2.73,3.74,3.74,0,0,1-2.7,1.11H114.43a17.12,17.12,0,0,1-12.3-5.1,17.06,17.06,0,0,1-3.75-5.61,17.38,17.38,0,0,1-1.29-6.64V204a3.74,3.74,0,0,1,1.11-2.7,3.59,3.59,0,0,1,2.67-1.14,3.89,3.89,0,0,1,3.84,3.84v21.66a9.16,9.16,0,0,0,.78,3.75,9.94,9.94,0,0,0,5.19,5.2,9.2,9.2,0,0,0,3.75.78h18.78A3.74,3.74,0,0,1,135.91,236.46Z"/><path class="cls-4" d="M179.41,200.48a3.76,3.76,0,0,1,2,2.13,3.6,3.6,0,0,1-.09,2.91L168,234.87a13.9,13.9,0,0,1-5.13,5.91,13.94,13.94,0,0,1-15,0,13.9,13.9,0,0,1-5.13-5.91l-13.38-29.35a3.6,3.6,0,0,1-.09-2.91,3.76,3.76,0,0,1,2-2.13,3.6,3.6,0,0,1,2.91-.09,3.76,3.76,0,0,1,2.13,2l13.38,29.29a6.22,6.22,0,0,0,2.31,2.66,5.94,5.94,0,0,0,3.33,1,6,6,0,0,0,3.39-1,6.22,6.22,0,0,0,2.31-2.66l13.38-29.29a3.76,3.76,0,0,1,2.13-2A3.6,3.6,0,0,1,179.41,200.48Z"/><path class="cls-5" d="M239.48,200.42a4,4,0,0,1,1.65,1.41,3.71,3.71,0,0,1,.63,2.13v35.17a3.71,3.71,0,0,1-1.11,2.73A3.64,3.64,0,0,1,238,243a3.74,3.74,0,0,1-2.7-1.11,3.66,3.66,0,0,1-1.14-2.73V212.9l-19,18.3a3.9,3.9,0,0,1-5.28,0l-19-18.3v26.23a3.67,3.67,0,0,1-1.15,2.73A3.72,3.72,0,0,1,187,243a3.64,3.64,0,0,1-2.67-1.11,3.71,3.71,0,0,1-1.11-2.73V204a3.71,3.71,0,0,1,.63-2.13,4,4,0,0,1,1.65-1.41,3.64,3.64,0,0,1,2.2-.27,3.75,3.75,0,0,1,2,1l22.86,22,22.86-22a3.68,3.68,0,0,1,1.95-1A3.62,3.62,0,0,1,239.48,200.42Z"/><path class="cls-6" d="M280.73,201.2a14.2,14.2,0,0,1,4.65,3.12,13.81,13.81,0,0,1,3.09,4.65,14.57,14.57,0,0,1,1,5.49v24.67a3.71,3.71,0,0,1-1.11,2.73,3.64,3.64,0,0,1-2.67,1.11,3.74,3.74,0,0,1-2.7-1.11,3.66,3.66,0,0,1-1.14-2.73V225.38H257.12a4.93,4.93,0,0,0-5,5,4.92,4.92,0,0,0,5,5H267a3.74,3.74,0,0,1,2.7,1.11,3.59,3.59,0,0,1,1.14,2.67,3.66,3.66,0,0,1-1.14,2.73A3.74,3.74,0,0,1,267,243h-9.9a12.22,12.22,0,0,1-4.92-1,13.16,13.16,0,0,1-4-2.7,12.54,12.54,0,0,1-2.73-4,12.67,12.67,0,0,1,0-9.82,12.67,12.67,0,0,1,2.73-4,13,13,0,0,1,4-2.69,12.22,12.22,0,0,1,4.92-1H281.9v-3.31a6.46,6.46,0,0,0-.54-2.61,6.9,6.9,0,0,0-1.44-2.13,7,7,0,0,0-2.1-1.44,6.21,6.21,0,0,0-2.58-.54H251.48a3.74,3.74,0,0,1-2.7-1.11,3.59,3.59,0,0,1-1.14-2.67,3.89,3.89,0,0,1,3.84-3.84h23.76A14.22,14.22,0,0,1,280.73,201.2Z"/><path class="cls-7" d="M335,201.26a3.74,3.74,0,0,1,1.11,2.7,3.79,3.79,0,0,1-3.78,3.78H317.36v31.39a3.71,3.71,0,0,1-1.11,2.73,3.64,3.64,0,0,1-2.67,1.11,3.74,3.74,0,0,1-2.7-1.11,3.66,3.66,0,0,1-1.14-2.73V207.74H294.86a3.74,3.74,0,0,1-2.7-1.11A3.59,3.59,0,0,1,291,204a3.89,3.89,0,0,1,3.84-3.84h37.45A3.59,3.59,0,0,1,335,201.26Z"/><path class="cls-8" d="M345.21,225.38v2.82a6.84,6.84,0,0,0,.57,2.8,7.35,7.35,0,0,0,1.53,2.25,7.06,7.06,0,0,0,2.28,1.52,6.73,6.73,0,0,0,2.76.58h23.34a3.79,3.79,0,0,1,3.78,3.78,3.71,3.71,0,0,1-1.11,2.73,3.64,3.64,0,0,1-2.67,1.11H352.35a14.69,14.69,0,0,1-14.76-14.77V215a14.5,14.5,0,0,1,1.14-5.7,15.2,15.2,0,0,1,8-8,14.5,14.5,0,0,1,5.7-1.14h17.58a12.28,12.28,0,0,1,4.89,1,12.45,12.45,0,0,1,4,2.73,13.06,13.06,0,0,1,2.7,4,12.6,12.6,0,0,1,0,9.79,12.76,12.76,0,0,1-2.7,4,12.63,12.63,0,0,1-8.91,3.69Zm0-7.61h24.84a4.77,4.77,0,0,0,3.54-1.48,4.84,4.84,0,0,0,1.44-3.51,4.91,4.91,0,0,0-1.44-3.57,4.76,4.76,0,0,0-3.54-1.47H352.47a7,7,0,0,0-2.82.57,7.33,7.33,0,0,0-3.87,3.87,7.07,7.07,0,0,0-.57,2.82Z"/><path class="cls-9" d="M191.32,15c31.83,27.7,30,77.51,0,102.3-29.95-24.79-31.82-74.6,0-102.3m0-15a14.94,14.94,0,0,0-9.84,3.69,82.86,82.86,0,0,0-28.32,63.75c.3,24.24,10.73,46.63,28.6,61.42a15,15,0,0,0,19.13,0c17.87-14.79,28.3-37.18,28.6-61.42A82.93,82.93,0,0,0,201.17,3.69,14.94,14.94,0,0,0,191.32,0Z"/><path class="cls-10" d="M191.3,144.22a7.18,7.18,0,0,1,7.06,7.06,7,7,0,0,1-14.07,0A7.18,7.18,0,0,1,191.3,144.22Z"/><path class="cls-11" d="M159.93,133.25a7.59,7.59,0,0,1-1.81-.22,86.72,86.72,0,0,1-32-17.47c-14.38-12.26-31.41-35-30.85-73.84a7.49,7.49,0,0,1,5.57-7.14c1.33-.35,13.74-3.28,39.39,2.63a7.5,7.5,0,0,1-3.37,14.62c-12.57-2.9-21.31-3.38-26.49-3.25,2.68,57.14,50.88,69.76,51.39,69.89a7.5,7.5,0,0,1-1.8,14.78Z"/><path class="cls-12" d="M222.72,133.25a7.5,7.5,0,0,1-1.82-14.78c2.14-.55,48.81-13.17,51.41-69.89-5.17-.13-13.91.35-26.49,3.25a7.5,7.5,0,1,1-3.37-14.62c25.65-5.91,38.06-3,39.39-2.63a7.5,7.5,0,0,1,5.57,7.14c.56,38.82-16.47,61.58-30.85,73.84a86.72,86.72,0,0,1-32,17.47A7.59,7.59,0,0,1,222.72,133.25Z"/></svg>